<?xml version="1.0" encoding="UTF-8" standalone="no"?>
<svg
        xmlns="http://www.w3.org/2000/svg"
        width="850"
        height="116"
        viewBox="0 0 901 116"
        version="1.1"
        id="svg3889">
  <metadata
     id="metadata190">
  </metadata>
  <defs
     id="defs3831">
    <clipPath
       id="clip-path">
      <rect
         id="Rectangle_13"
         width="109"
         height="96"
         fill="#fff"
         stroke="#707070"
         stroke-width="1" />
    </clipPath>
    <clipPath
       id="clip-path-2">
      <rect
         id="Rectangle_15"
         data-name="Rectangle 15"
         width="119"
         height="97"
         transform="translate(-0.462)"
         fill="#fff"
         stroke="#707070"
         stroke-width="1" />
    </clipPath>
    <clipPath
       id="clip-path-3">
      <rect
         id="Rectangle_16"
         data-name="Rectangle 16"
         width="104"
         height="99"
         transform="translate(0.133)"
         fill="#fff"
         stroke="#707070"
         stroke-width="1" />
    </clipPath>
    <clipPath
       id="clip-path-4">
      <rect
         id="Rectangle_17"
         data-name="Rectangle 17"
         width="104"
         height="99"
         transform="translate(0 0)"
         fill="#fff"
         stroke="#707070"
         stroke-width="1" />
    </clipPath>
  </defs>
  <g
     id="Const"
     transform="matrix(0.99083106,0,0,1,-2.5884115,3.5920598)">
    <text
       id="const-2"
       data-name="const"
       font-size="80"
       style="font-size:80px;font-family:OpenSans, OpenSans;fill:#003c55;stroke:#003c55;stroke-width:1"
       x="33.485394"
       y="76.036827">
      <tspan
         x="33.485394"
         y="76.036827"
         id="tspan3833">const</tspan>
    </text>
    <text
       id="_"
       data-name="}"
       transform="translate(786,74)"
       font-size="80"
       style="font-size:80px;font-family:OpenSans, 'OpenSans';fill:#003c55;stroke:#003c55;stroke-width:1">
      <tspan
         x="0"
         y="0"
         id="tspan3836">}</tspan>
    </text>
    <g
       id="Logos"
       transform="translate(288)">
      <g
         id="Component_1_1"
         data-name="Component 1 – 1"
         transform="translate(0,3)">
        <g
           id="Mask_Group_2"
           data-name="Mask Group 2"
           clip-path="url(#clip-path)">
          <g
             id="html5-2"
             transform="translate(18.723)">
            <path
               id="Path_15"
               data-name="Path 15"
               d="M 21.234,89.272 14.723,19.849 h 71.554 l -6.518,69.412 -29.3,7.721 z"
               transform="translate(-14.723,-0.983)" />
            <path
               id="Path_16"
               data-name="Path 16"
               d="M 50.5,91.376 74.178,85.137 79.749,25.821 H 50.5 Z"
               transform="translate(-14.723,-1.278)" />
            <g
               id="Group_4"
               data-name="Group 4"
               transform="translate(13.315,33.057)">
              <path
                 id="Path_17"
                 data-name="Path 17"
                 d="M 50.5,52.012 H 38.646 L 37.827,43.293 H 50.5 V 34.779 H 28.038 l 0.214,2.284 2.2,23.464 H 50.5 Z m 0,22.113 -0.039,0.01 -9.977,-2.561 -0.638,-6.791 h -8.992 l 1.255,13.369 18.35,4.842 0.041,-0.011 z"
                 transform="translate(-28.038,-34.779)"
                 style="fill:#ebebeb" />
            </g>
            <path
               id="Path_18"
               data-name="Path 18"
               d="m 21.38,0 h 4.552 V 4.275 H 30.1 V 0 h 4.552 V 12.946 H 30.1 V 8.611 h -4.167 v 4.335 H 21.38 Z M 40.636,4.293 H 36.628 V 0 H 49.2 v 4.293 h -4.012 v 8.653 H 40.636 Z M 51.193,0 H 55.94 L 58.86,4.549 61.776,0 h 4.749 V 12.946 H 61.991 V 6.529 l -3.132,4.6 h -0.078 l -3.134,-4.6 v 6.417 h -4.454 z m 17.6,0 h 4.554 v 8.667 h 6.4 v 4.279 H 68.79 Z"
               transform="translate(-14.723)" />
            <g
               id="Group_5"
               data-name="Group 5"
               transform="translate(35.747,33.057)">
              <path
                 id="Path_19"
                 data-name="Path 19"
                 d="m 50.469,52.012 v 8.514 H 61.5 l -1.04,11.043 -9.991,2.563 V 82.99 L 68.833,78.152 68.968,76.713 71.073,54.3 71.292,52.014 H 50.469 Z m 0,-17.234 v 8.515 h 21.638 l 0.18,-1.914 0.408,-4.316 0.214,-2.284 z"
                 transform="translate(-50.469,-34.779)"
                 style="fill:#ffffff" />
            </g>
          </g>
        </g>
      </g>
      <g
         id="Mask_Group_3"
         data-name="Mask Group 3"
         transform="translate(104.462,3)"
         clip-path="url(#clip-path-2)">
        <g
           id="layer1"
           transform="translate(24.051,0.226)">
          <g
             id="g3013">
            <path
               id="polygon2989"
               d="m 95.855,32.819 -6.515,69.972 -29.285,7.784 -29.2,-7.773 -6.512,-69.983 z"
               transform="translate(-24.343,-13.801)" />
            <path
               id="polygon2991"
               d="M 107.163,102.488 112.73,42.694 H 83.5 v 66.084 z"
               transform="translate(-47.744,-17.954)" />
            <path
               id="polygon2993"
               d="m 49.027,87.485 0.8,8.583 h 20.036 v -8.583 z"
               transform="translate(-34.107,-36.789)"
               style="fill:#ebebeb" />
            <path
               id="polygon2995"
               d="M 68.808,57.506 H 46.359 l 0.814,8.583 h 21.635 z"
               transform="translate(-33.052,-24.182)"
               style="fill:#ebebeb" />
            <path
               id="polygon2997"
               d="m 70.65,128.049 v -8.93 l -0.039,0.01 -9.97,-2.581 L 60,109.7 h -8.984 l 1.254,13.477 18.339,4.881 z"
               transform="translate(-34.894,-46.132)"
               style="fill:#ebebeb" />
            <path
               id="path2999"
               d="m 52.188,0 h 10.843 v 4.347 h -6.309 v 4.347 h 6.309 v 4.347 H 52.188 Z"
               transform="translate(-35.358)" />
            <path
               id="path3001"
               d="m 73.715,0 h 10.843 v 3.78 h -6.309 v 0.756 h 6.309 V 13.23 H 73.715 V 9.262 h 6.309 V 8.505 h -6.309 z"
               transform="translate(-43.873)" />
            <path
               id="path3003"
               d="m 95.242,0 h 10.843 v 3.78 h -6.308 v 0.756 h 6.309 V 13.23 H 95.242 V 9.262 h 6.309 V 8.505 h -6.309 z"
               transform="translate(-52.389)" />
            <path
               id="polygon3005"
               d="m 94.473,83.461 -1.039,11.132 -9.985,2.584 v 8.93 l 18.353,-4.877 0.135,-1.45 2.1,-22.6 0.218,-2.3 1.616,-17.372 H 83.449 v 8.583 h 12.615 l -0.815,8.789 h -11.8 v 8.583 z"
               transform="translate(-47.724,-24.182)"
               style="fill:#ffffff" />
          </g>
        </g>
      </g>
      <g
         id="Mask_Group_4"
         data-name="Mask Group 4"
         transform="translate(240.867,1)"
         clip-path="url(#clip-path-3)">
        <g
           id="Unofficial_JavaScript_logo_2"
           transform="translate(-0.289,0.157)">
          <path
             id="Path_22"
             data-name="Path 22"
             d="M 0,0 H 103.835 V 98.843 H 0 Z" />
          <path
             id="Path_21"
             data-name="Path 21"
             d="m 71.111,81.831 c 2.092,3.251 4.813,5.64 9.625,5.64 4.043,0 6.626,-1.924 6.626,-4.581 0,-3.185 -2.654,-4.313 -7.1,-6.166 l -2.439,-1 C 70.778,72.872 66.1,69.295 66.1,61.733 c 0,-6.966 5.576,-12.269 14.29,-12.269 6.2,0 10.664,2.055 13.878,7.437 l -7.6,4.644 c -1.673,-2.855 -3.478,-3.98 -6.28,-3.98 -2.858,0 -4.669,1.726 -4.669,3.98 0,2.786 1.813,3.915 6,5.64 l 2.439,0.995 c 8.29,3.384 12.971,6.834 12.971,14.591 0,8.362 -6.9,12.944 -16.169,12.944 -9.062,0 -14.916,-4.111 -17.781,-9.5 z m -34.468,0.8 c 1.533,2.589 2.927,4.777 6.28,4.777 3.206,0 5.228,-1.194 5.228,-5.836 V 49.994 h 9.757 V 81.7 c 0,9.618 -5.924,13.995 -14.57,13.995 C 35.525,95.7 31,91.848 28.7,87.213 Z"
             transform="translate(-1.36,-4.609)"
             style="fill:#ffffff" />
        </g>
      </g>
      <text
         id="_2"
         data-name=","
         font-size="96"
         style="font-size:96px;font-family:OpenSans, 'OpenSans';fill:#003c55"
         x="342.37134"
         y="98.739357">
        <tspan
           x="342.37134"
           y="98.739357"
           id="tspan3865">,</tspan>
      </text>
      <g
         id="Mask_Group_5"
         data-name="Mask Group 5"
         transform="translate(391)"
         clip-path="url(#clip-path-4)">
        <g
           id="react-1"
           transform="translate(0.685,0.652)">
          <path
             id="Path_23"
             data-name="Path 23"
             d="M 0,0 H 103.315 V 98.348 H 0 Z"
             style="fill:#222222" />
          <path
             id="Path_27"
             data-name="Path 27"
             d="M 8.64,0 A 8.44,8.44 0 0 1 17.28,8.224 8.44,8.44 0 0 1 8.64,16.448 8.44,8.44 0 0 1 0,8.224 8.44,8.44 0 0 1 8.64,0 Z"
             transform="translate(42.938,40.89)"
             style="fill:#ffffff" />
          <path
             id="Path_24"
             data-name="Path 24"
             d="m 51.153,31.291 c 11.6,0 22.373,1.585 30.5,4.245 9.787,3.207 15.806,8.069 15.806,12.472 0,4.588 -6.378,9.754 -16.888,13.067 -7.946,2.506 -18.4,3.816 -29.413,3.816 -11.289,0 -21.976,-1.228 -30.013,-3.843 C 10.973,57.741 4.849,52.509 4.849,48.009 c 0,-4.368 5.747,-9.192 15.4,-12.393 8.154,-2.7 19.195,-4.324 30.907,-4.324 z"
             transform="translate(0.424,1.103)"
             stroke-miterlimit="10"
             style="fill:none;stroke:#ffffff;stroke-width:3.79999995;stroke-miterlimit:10" />
          <path
             id="Path_25"
             data-name="Path 25"
             d="m 34.36,40.456 c 5.793,-9.564 12.62,-17.658 19.1,-23.026 7.809,-6.468 15.241,-9 19.246,-6.8 4.174,2.291 5.69,10.132 3.455,20.457 -1.69,7.806 -5.722,17.082 -11.223,26.162 -5.639,9.309 -12.1,17.508 -18.49,22.83 -8.088,6.73 -15.911,9.165 -20.006,6.921 -3.974,-2.182 -5.493,-9.33 -3.589,-18.889 0.277,-1.39 1.133,-4.637 1.133,-4.637 0,0 5.527,-15.023 10.374,-23.018 z"
             transform="translate(1.929,0.347)"
             stroke-miterlimit="10"
             style="fill:none;stroke:#ffffff;stroke-width:3.79999995;stroke-miterlimit:10" />
          <path
             id="Path_26"
             data-name="Path 26"
             d="m 34.372,57.263 c -5.81,-9.556 -9.767,-19.226 -11.418,-27.252 -1.987,-9.67 -0.582,-17.065 3.42,-19.27 4.171,-2.3 12.063,0.367 20.343,7.365 6.261,5.292 12.688,13.249 18.2,22.322 5.656,9.3 9.9,18.721 11.543,26.648 2.087,10.034 0.4,17.7 -3.695,19.954 C 68.8,89.219 61.535,86.9 53.787,80.557 47.243,75.2 40.239,66.911 34.372,57.263 Z"
             transform="translate(1.931,0.35)"
             stroke-miterlimit="10"
             style="fill:none;stroke:#ffffff;stroke-width:3.79999995;stroke-miterlimit:10" />
        </g>
      </g>
      <text
         id="_3"
         data-name=","
         font-size="96"
         style="font-size:96px;font-family:OpenSans, 'OpenSans';fill:#003c55;stroke:#003c55;stroke-width:1"
         x="191.37135"
         y="96.739357">
        <tspan
           x="191.37135"
           y="96.739357"
           id="tspan3875">,</tspan>
      </text>
      <text
         id="_4"
         data-name=","
         font-size="96"
         style="font-size:96px;font-family:OpenSans, 'OpenSans';fill:#003c55;stroke:#003c55;stroke-width:1"
         x="81.371346"
         y="96.739357">
        <tspan
           x="81.371346"
           y="96.739357"
           id="tspan3878">,</tspan>
      </text>
    </g>
    <text
       id="_5"
       data-name="="
       font-size="80"
       style="font-size:80px;font-family:OpenSans, OpenSans;fill:#003c55;stroke:#003c55;stroke-width:1"
       x="824.88599"
       y="79.147293">
      <tspan
         x="824.88599"
         y="79.147293"
         id="tspan3882">=</tspan>
    </text>
    <text
       id="_6"
       data-name="{"
       transform="translate(246,74)"
       font-size="80"
       style="font-size:80px;font-family:OpenSans, 'OpenSans';fill:#003c55;stroke:#003c55;stroke-width:1">
      <tspan
         x="0"
         y="0"
         id="tspan3885">{</tspan>
    </text>
  </g>
</svg>
